<?xml version="1.0" encoding="UTF-8" standalone="no"?>
<svg
   xmlns:dc="http://purl.org/dc/elements/1.1/"
   xmlns:cc="http://creativecommons.org/ns#"
   xmlns:rdf="http://www.w3.org/1999/02/22-rdf-syntax-ns#"
   xmlns:svg="http://www.w3.org/2000/svg"
   xmlns="http://www.w3.org/2000/svg"
   xmlns:sodipodi="http://sodipodi.sourceforge.net/DTD/sodipodi-0.dtd"
   xmlns:inkscape="http://www.inkscape.org/namespaces/inkscape"
   version="1.0"
   width="180"
   height="185"
   id="wait"
   inkscape:version="0.48.5 r10040"
   sodipodi:docname="Time2wait.svg">
  <metadata
     id="metadata12">
    <rdf:RDF>
      <cc:Work
         rdf:about="">
        <dc:format>image/svg+xml</dc:format>
        <dc:type
           rdf:resource="http://purl.org/dc/dcmitype/StillImage" />
      </cc:Work>
    </rdf:RDF>
  </metadata>
  <defs
     id="defs10" />
  <sodipodi:namedview
     pagecolor="#ffffff"
     bordercolor="#666666"
     borderopacity="1"
     objecttolerance="10"
     gridtolerance="10"
     guidetolerance="10"
     inkscape:pageopacity="0"
     inkscape:pageshadow="2"
     inkscape:window-width="1438"
     inkscape:window-height="828"
     id="namedview8"
     showgrid="false"
     inkscape:zoom="80.860654"
     inkscape:cx="68.458512"
     inkscape:cy="142.42279"
     inkscape:window-x="0"
     inkscape:window-y="27"
     inkscape:window-maximized="0"
     inkscape:current-layer="wait" />
  <path
     d="M 163.85386,82.236035 C 170.58386,130.03604 140.18386,174.06604 95.94386,180.29604 C 51.683856,186.53604 10.383856,152.73604 3.683856,104.82604 C -2.9961436,56.936035 27.383856,12.936035 71.583856,6.7360356 C 115.78386,0.53603558 156.78386,34.336035 163.78386,82.236035 L 163.85386,82.236035 z"
     id="p1"
     style="fill:#b3b3b3" />
  <path
     d="M 175.052,82.236027 C 181.782,130.036 151.382,174.066 107.142,180.296 C 62.881986,186.536 21.581986,152.736 14.881986,104.826 C 8.2019864,56.936027 38.581986,12.936027 82.781986,6.7360273 C 126.982,0.5360273 167.98199,34.336027 174.98199,82.236027 L 175.05199,82.236027 z"
     id="p2"
     style="fill:#ac9d93" />
  <path
     d="M 159.03899,84.506075 C 164.41199,122.83603 140.08199,157.93603 104.682,162.93603 C 69.331986,167.92603 36.281986,140.936 30.881986,102.53603 C 25.581986,64.236027 49.881986,29.036027 85.281986,24.036027 C 120.682,19.136027 153.682,46.036 159.039,84.536027 L 159.039,84.536027 L 159.039,84.506075 z"
     id="p3"
     style="fill:#f2f2f2" />
  <path
     d="m 94.710027,35.543401 c 28.134753,0.422938 28.665603,8.035968 28.665603,8.035968 -0.17778,20.185893 -27.70917,32.761621 -27.421845,50.258056 0.109588,6.671885 6.718915,16.567425 12.558195,21.854265 5.8393,5.28682 12.47484,12.26543 13.53652,18.39815 1.0617,6.13271 1.85797,11.20807 1.85797,11.20807 0,0 -6.37014,9.30481 -27.073061,8.88187 -20.702941,-0.42295 -30.86089,-5.72148 -31.319825,-9.51629 -0.04365,-0.36094 2.296129,-11.03001 2.374696,-11.26549 3.212458,-9.63038 10.126793,-13.41616 15.143172,-20.244 0,0 9.137292,-12.4732 8.402689,-19.214893 -0.456827,-17.74315 -25.420495,-29.435829 -25.927349,-50.359738 0.0068,0 1.068484,-8.458915 29.203235,-8.035968 z"
     id="p4"
     style="fill:#d9d3d0;stroke:#ac9d93;stroke-width:3.5"
     inkscape:connector-curvature="0"
     sodipodi:nodetypes="scssscssccccs" />
  <path
     d="M 88,73.187504 C 86.33289,73.246848 84.637423,73.527617 82.90625,74.062504 C 83.422929,74.573829 84.987441,80.434987 87.312504,84.781252 C 89.229484,88.364701 91.45207,93.62493 92.312504,95.6875 L 92.312504,122.0625 C 90.861744,123.91035 88.414063,126.56646 85.12,128.96875 C 79.387722,133.1592 74.956,139.88555 68.75,149.9375 C 75.785285,151.64044 85.322962,153.53125 92,153.53125 C 98.677032,153.53125 112.02722,151.9842 119.0625,150.28126 C 114.62688,141.10249 108.20603,133.1592 102.46875,128.96875 C 99.25164,126.619 96.868885,124.02993 95.40625,122.1875 L 95.40625,94.406254 C 95.988527,91.889757 96.864204,88.504661 97.656251,87.093751 C 98.947947,84.792787 102.56249,76.093754 102.5625,76.093754 C 97.780212,74.646039 93.00132,73.00946 88,73.187504 L 88,73.187504 z"
     id="p5"
     style="fill:#ac9d93" />
</svg>
